<?xml version="1.0" encoding="UTF-8"?>
<!-- Created with Inkscape (http://www.inkscape.org/) -->
<svg width="494.02" height="691.92" version="1.1" viewBox="0 0 494.02 691.92" xml:space="preserve" xmlns="http://www.w3.org/2000/svg"><g fill="#ffd614" stroke="#000" stroke-linejoin="bevel" stroke-miterlimit="0" stroke-width="2.866"><path transform="translate(2.5959 575.87)" d="m90.407 113.4h-61.175l-30.587-52.979 30.587-52.979 61.175 3e-6 30.587 52.979z"/><path transform="translate(3.2001 470.13)" d="m90.407 113.4h-61.175l-30.587-52.979 30.587-52.979 61.175 3e-6 30.587 52.979z"/><path transform="translate(95.045 523.3)" d="m90.407 113.4h-61.175l-30.587-52.979 30.587-52.979 61.175 3e-6 30.587 52.979z"/><path transform="translate(95.045 418.77)" d="m90.407 113.4h-61.175l-30.587-52.979 30.587-52.979 61.175 3e-6 30.587 52.979z"/><path transform="translate(95.649 313.03)" d="m90.407 113.4h-61.175l-30.587-52.979 30.587-52.979 61.175 3e-6 30.587 52.979z"/><path transform="translate(187.49 366.2)" d="m90.407 113.4h-61.175l-30.587-52.979 30.587-52.979 61.175 3e-6 30.587 52.979z"/><path transform="translate(188.1 471.34)" d="m90.407 113.4h-61.175l-30.587-52.979 30.587-52.979 61.175 3e-6 30.587 52.979z"/><path transform="translate(279.94 524.51)" d="m90.407 113.4h-61.175l-30.587-52.979 30.587-52.979 61.175 3e-6 30.587 52.979z"/><path transform="translate(187.49 577.08)" d="m90.407 113.4h-61.175l-30.587-52.979 30.587-52.979 61.175 3e-6 30.587 52.979z"/><path transform="translate(279.34 312.42)" d="m90.407 113.4h-61.175l-30.587-52.979 30.587-52.979 61.175 3e-6 30.587 52.979z"/><path transform="translate(371.18 365.6)" d="m90.407 113.4h-61.175l-30.587-52.979 30.587-52.979 61.175 3e-6 30.587 52.979z"/><path transform="translate(278.73 418.17)" d="m90.407 113.4h-61.175l-30.587-52.979 30.587-52.979 61.175 3e-6 30.587 52.979z"/><path transform="translate(188.1 153.51)" d="m90.407 113.4h-61.175l-30.587-52.979 30.587-52.979 61.175 3e-6 30.587 52.979z"/><path transform="translate(279.94 206.68)" d="m90.407 113.4h-61.175l-30.587-52.979 30.587-52.979 61.175 3e-6 30.587 52.979z"/><path transform="translate(187.49 259.25)" d="m90.407 113.4h-61.175l-30.587-52.979 30.587-52.979 61.175 3e-6 30.587 52.979z"/><path transform="translate(279.94 -6.0122)" d="m90.407 113.4h-61.175l-30.587-52.979 30.587-52.979 61.175 3e-6 30.587 52.979z"/><path transform="translate(371.79 47.161)" d="m90.407 113.4h-61.175l-30.587-52.979 30.587-52.979 61.175 3e-6 30.587 52.979z"/><path transform="translate(279.34 99.73)" d="m90.407 113.4h-61.175l-30.587-52.979 30.587-52.979 61.175 3e-6 30.587 52.979z"/></g><g transform="matrix(.0235 0 0 .0235 323.05 3.0366)"><g><g fill="#fde52e" stroke="#000" stroke-linejoin="bevel" stroke-miterlimit="0" stroke-width="2.5"><path d="m528.78 1085.5s-35.377-87.325-63.162-124.75c-8.3898-11.3-30.541-29.152-30.541-29.152s1.025 51.813 0 77.689c-1.0076 25.438-3.6276 50.791-6.041 76.135-0.6916 7.2625 0.34885 15.002-2.418 21.752-6.4185 15.659-20.18 27.229-31.42 39.881-7.9454 8.9437-15.871 18.116-25.379 25.377-10.324 7.8852-22.449 13.087-33.838 19.336-7.5828 4.1606-15.725 7.3486-22.961 12.086-4.3159 2.8255-11.601 4.532-12.084 9.6679-0.34751 3.6973 3.7397 7.2471 7.25 8.459 5.8246 2.0108 11.985-4.1216 18.127-3.625 3.4305 0.2774 6.2294 3.4775 9.668 3.625 10.449 0.4482 20.886-13.191 30.213-8.459 3.0688 1.5569 0.70683 7.8424 3.625 9.666 7.2064 4.5035 17.11-0.4547 25.379-2.416 7.5696-1.7955 21.464-1.3749 28.701-4.2293 4.0363-1.592 7.1679-0.44 11.482-0.9063 4.8716-0.5266 4.43-8.9242 8.1554-5.7413 2.9058 2.4826-11.189 7.0416-8.1558 9.3663 5.4447 4.1723 25.914 5.1569 32.326 2.7196 3.7278-1.417 4.9334-6.5985 8.4609-8.459 5.8004-3.0593 13.12-1.5361 19.336-3.6269 4.2683-1.4358 7.7135-7.1265 12.084-6.041 3.363 0.8353 3.2554 6.4004 6.043 8.4589 2.0492 1.5132 4.7778 1.8021 7.25 2.4161 4.7562 1.1813 9.6023 2.3179 14.502 2.4179 3.2471 0.066 7.5187 1.2258 9.668-1.209 1.866-2.1139 1.7727-6.2662 0-8.4589-3.6258-4.485-11.852-0.8689-16.918-3.625-1.5019-0.8171-3.2342-1.963-3.627-3.627-1.4632-6.1989 5.0226-11.84 6.043-18.127 0.19357-1.1927 0.27762-2.449 0-3.625-0.82781-3.5066-4.1234-6.1357-4.834-9.6679-1.1944-5.9368 1.1754-12.071 1.209-18.127 0.0402-7.2624-0.71797-14.508-1.209-21.754-0.68301-10.079-2.013-20.116-2.416-30.211-0.20891-5.2328 0-15.711 0-15.711z"/><path d="m1104 965.37-92.726 87.578s-4.5612 22.46-6.9649 33.664c-1.5582 7.2629-3.2008 14.508-4.834 21.754-3.18 14.109-5.4096 28.475-9.6679 42.297-2.9293 9.5081-10.368 17.859-10.877 27.795-0.44928 8.7718 10.881 17.489 7.0451 25.39-1.6856 3.4719-6.9288 3.567-10.682 4.468-8.2772 1.9873-24.228-6.5061-25.465 1.916-0.95136 6.4778 11.807 6.5498 18.336 7.0431 11.477 0.8671 22.379-9.3181 33.727-7.3976 10.893 1.8436 17.474 14.858 28.236 17.359 7.5996 1.7661 16.39 1.4101 23.302-2.2092 3.5176-1.842 3.9311-7.7958 7.6792-9.1066 5.8165-2.0342 12.076 2.4597 18.127 3.625 10.862 2.0918 21.576 6.4714 32.629 6.043 6.2488-0.2422 15.453 0.819 18.127-4.834 2.0811-4.3997-9.749-10.14-6.0411-13.293 6.6388-5.645 13.412 11.977 21.752 14.502 4.6265 1.4008 9.7107 0.6416 14.502 0 4.5522-0.6096 9.5655-0.9418 13.293-3.625 3.6031-2.5937-3.4751-11.457-2.0635-13.975 3.5241-6.2855 22.936 14.432 20.19 12.766-5.6756-3.4447 1.4936 8.3026 16.92 0 6.5409-3.5204-10.732-10.393-16.92-14.502-11.256-7.4734-23.275-14.371-36.254-18.127-7.7778-2.2507-17.265 1.8111-24.17-2.418-5.7171-3.5017-7.9815-10.871-10.877-16.918-6.6018-13.787-5.8851-30.88-14.502-43.506-1.7734-2.5986-5.8567-3.2223-7.25-6.043-4.2854-8.6757-1.2378-19.328-1.209-29.004 0.05-16.938 2.0149-33.823 2.418-50.756 0.3164-13.289-0.9101-26.617 0-39.879 0.7051-10.275 4.2207-30.607 4.2207-30.607z"/><path d="m859.26 308.35c-20.035 0.27383-33.704 21.966-51.965 30.213-20.898 9.4374-42.37 23.105-65.26 21.752-15.11-0.89345-28.408-11.068-41.088-19.336-10.285-6.706-15.727-21.91-27.795-24.17-10.521-1.9699-19.849 8.2003-30.213 10.877-12.247 3.1631-24.888 4.6733-37.463 6.043-14.039 1.5291-28.395-0.0677-42.297 2.416-14.927 2.667-31.632 3.8614-43.506 13.293-6.9249 5.5007-10.302 14.638-13.293 22.961-4.1433 11.53-2.3413 24.576-6.043 36.256-3.647 11.507-12.298 21.05-15.709 32.629-2.7535 9.346-2.8767 19.29-3.625 29.004-1.0523 13.661 1.7784 27.716-1.209 41.088-2.2027 9.8599-10.239 17.862-12.086 27.795-3.4636 18.631 2.5559 37.849 2.418 56.799-0.1028 14.122-1.4734 28.207-2.418 42.297-1.0539 15.721-1.2796 31.55-3.625 47.131-1.519 10.091-12.785 54.033-12.785 54.033l95.395 32.59s15.4-54.625 18.052-77.899c3.5565-31.213 5.6959-62.603 6.8359-93.998 0.37212-10.247 0-30.762 0-30.762s10.711 19.938 13.672 30.762c6.5065 23.788 6.2089 48.939 8.5449 73.49 1.461 15.354 3.9838 30.731 3.4199 46.145-0.4889 13.365-5.8809 39.688-5.8809 39.688s112.17 11.009 168.24 8.166c57.635-2.9221 171.19-25.84 171.19-25.84s-1.7264-4.3396-1.9902-6.6328c-3.1315-27.219 2.1426-54.8 5.1269-82.035 4.3969-40.127 18.799-119.63 18.799-119.63s10.149 24.738 13.674 37.6c13.034 47.561 32.219 164.12 32.219 164.12l78.226-77.015s-7.329-38.438-7.2846-46.494c0.071-12.916 4.0107-25.855 2.418-38.672-1.3039-10.493-6.2194-20.217-9.668-30.213-3.7827-10.964-9.6607-21.287-12.086-32.629-3.7986-17.766-0.4125-36.5-3.625-54.381-2.7496-15.305-7.9086-30.127-13.293-44.715-5.4952-14.888-10.092-30.607-19.336-43.506-4.1515-5.793-9.9475-10.31-15.711-14.502-5.9801-4.3498-13.178-6.7811-19.336-10.875-3.8245-2.5425-6.3816-7.5102-10.875-8.459-3.2501-0.68628-6.3464 2.3825-9.668 2.416-14.462 0.14584-28.231-6.3026-42.297-9.668-14.538-3.4784-29.581-5.4415-43.506-10.877-4.7017-1.8352-8.2463-7.319-13.293-7.25z"/></g><path d="m943.83 508.77c-3.8386-9.0541-13.339 15.01-16.918 24.17-5.4741 14.009-3.3422 29.919-6.043 44.715-0.9651 5.2872-3.7635 10.338-3.625 15.711 0.15116 5.8631 4.3428 11.074 4.834 16.918 0.61098 7.2696-1.7924 14.483-2.416 21.752-1.1385 13.269-1.557 26.591-2.418 39.881-0.75701 11.686-1.6237 23.364-2.416 35.047-0.81947 12.084-2.418 36.254-2.418 36.254l2.4668 1.6445c7.5974-1.4595 12.822-2.4885 13.92-2.709l1.9199-0.52344c-0.0933-0.23591-1.6832-4.2645-1.9394-6.4922-3.1315-27.219 2.1426-54.8 5.127-82.035 4.0908-37.333 21.582-105.7 20.282-115.53-3.5216-26.65-6.6884-20.145-10.357-28.797z" fill="#020200"/><g fill="#fff291"><path d="m852.82 309.34s13.067 13.305 21.363 17.09c15.808 7.2121 34.122 6.6049 51.271 9.4004 9.94 1.6204 25.665-4.8613 29.91 4.2715 1.1327 2.4369-1.8272 5.7237-4.2734 6.8359-6.565 2.9848-14.162-3.8134-21.363-3.418-11.799 0.64801-34.182 9.4004-34.182 9.4004s21.794-5.522 32.473-3.418c8.2523 1.6259 16.923 5.427 22.217 11.963 7.6595 9.4562 7.7839 23.122 10.256 35.037 1.8659 8.994 3.418 27.344 3.418 27.344s-24.446-25.87-40.164-33.326c-12.062-5.7219-26.373-11.004-39.307-7.6914-8.621 2.2082-19.357 8.2674-20.51 17.092-2.1699 16.614 25.032 24.753 29.055 41.018 3.6564 14.782-2.9753 30.361-5.9824 45.289-3.8481 19.102-8.7774 38.065-15.381 56.398-5.6163 15.592-6.9907 35.705-20.51 45.291-15.862 11.247-38.958 8.4995-58.107 5.127-4.6438-0.81784-8.2056-5.0046-12.818-5.9824-14.771-3.1311-33.542-8.6305-45.289 0.85547-11.611 9.3756-13.398 28.992-10.254 43.58 0.98432 4.567 4.2213 9.3395 8.5449 11.109 9.5807 3.922 21.578-9.0513 30.762-4.2734 11.641 6.056 12.179 23.25 17.945 35.037 6.216 12.706 12.002 25.618 17.945 38.453 4.8737 10.525 5.4978 24.338 14.527 31.617 12.966 10.453 31.688 13.653 48.795 10.752 21.388-3.6277 38.852-6.8616 51.227-9.2344 17.04-3.2675 2.2831-19.808 3.377-29.717 7.0408-63.782 1.8456-130.02 20.508-191.41 3.7425-12.312 16.818-21.362 17.945-34.182 1.152-13.102-11.963-37.6-11.963-37.6s24.189 21.415 39.309 24.781c4.483 0.9981 9.7537-4.105 13.672-1.709 8.5329 5.218 11.723 18.306 10.254 28.199-0.4182 2.8174-2.3882 6.0536-5.127 6.8359-5.2893 1.5108-15.381-5.9805-15.381-5.9805s3.4334 24.599 5.9805 36.744c3.9846 19 9.7224 37.589 14.527 56.398 5.4547 21.352 1.1588 48.017 16.236 64.09 6.3476 6.7669 17.243 9.3068 26.49 8.5449 9.8243-0.80941 26.279-13.562 26.279-13.562 2.8202-1.4555-7.0033-37.007-6.9609-44.707 0.071-12.916 4.0107-25.855 2.418-38.672-1.3039-10.493-6.2194-20.217-9.668-30.213-3.7827-10.964-9.6607-21.287-12.086-32.629-3.7986-17.766-0.4125-36.5-3.625-54.381-2.7496-15.305-7.9086-30.127-13.293-44.715-5.4952-14.888-10.092-30.607-19.336-43.506-3.9637-5.5309-9.443-9.8679-14.945-13.9-5.4876-4.0217-4.0414-1.1866-5.1816 0.11133-6.9963 7.9638 2.5537 21.052 3.418 31.617 0.41866 5.1178 5.0056 12.357 0.85546 15.381-3.2066 2.3362-8.4924-1.2896-11.109-4.2715-5.6052-6.3869-5.6501-16.29-5.9824-24.781-0.28201-7.2061 3.1227-14.158 3.418-21.363 0.0709-1.7309-0.39844-5.1816-0.39844-5.1816-0.15183-1.9745-3.4754-1.8942-5.1211-2.9883-3.8245-2.5425-6.3816-7.5102-10.875-8.459-3.2501-0.68628-6.3464 2.3825-9.668 2.416-14.462 0.14584-28.231-6.3026-42.297-9.668-14.538-3.4784-29.581-5.4415-43.506-10.877-2.6625-1.0393-4.4424-4.5612-7.373-4.8867z"/><path d="m482.81 677.64 28.199-36.745 11.963-39.308 0.85453-11.109 10.254-4.2726 8.5453 9.3998 12.818 32.472 3.4181 36.745-3.4181 17.091-16.236 18.8-7.6908 17.945-3.4181 36.745v8.5453s-23.927-5.9817-28.199-5.9817-35.89-20.509-35.89-20.509z"/><path d="m553.73 418.72c-0.76535-13.89 1.7404-28.444 7.6908-41.017 3.9781-8.4062 8.859-19.38 17.945-21.363 5.8508-1.2769 10.347 6.6021 16.236 7.6908 7.304 1.3503 15.924-5.6536 22.218-1.7091 7.2608 4.5506 3.9794 17.29 9.3998 23.927 7.9463 9.7296 20.89 13.972 31.618 20.509 7.8442 4.7801 20.388 5.1958 23.927 13.672 1.7037 4.0806-3.4181 12.818-3.4181 12.818s4.6108-5.0435 7.6908-5.1272c7.2762-0.19758 18.8 11.109 18.8 11.109s-5.0149-6.4344-5.1272-10.254c-0.19116-6.5051 3.9352-12.63 7.6908-17.945 5.8161-8.2313 12.184-19.553 22.218-20.509 9.6785-0.92187 19.201 7.4205 24.781 15.382 3.1747 4.5288 3.836 10.721 3.4181 16.236-0.55171 7.2802-2.574 15.3-7.6908 20.509-9.2302 9.3952-36.745 14.527-36.745 14.527s17.816 7.9148 27.345 8.5453c8.364 0.55346 18.762-10.106 24.781-4.2726 11.773 11.41-3.543 32.647-6.8362 48.708-4.15 20.239-6.0287 41.854-16.236 59.817-5.8719 10.333-14.236 20.153-24.781 25.636-4.8612 2.5276-10.85 3.5666-16.236 2.5636-12.296-2.2895-24.948-8.8088-32.472-18.8-3.5326-4.6907-3.434-11.279-4.2726-17.091-1.9544-13.544-0.1331-27.424-1.709-41.017-1.5698-13.54-1.7315-27.904-7.6908-40.163-3.7956-7.8082-11.452-13.052-17.091-19.654-7.4844-8.7637-14.532-17.903-22.218-26.49-5.7774-6.4554-10.828-13.86-17.945-18.8-3.5641-2.4739-7.755-6.182-11.963-5.1272-5.3075 1.3303-10.254 12.818-10.254 12.818s0.67964-11.324-3.4181-11.963c-7.1031-1.1088-9.2122 11.303-11.963 17.945-1.1116 2.6837-1.7091 8.5453-1.7091 8.5453s-5.6049-12.816-5.9817-19.654z"/></g></g><g><path d="m1355.9 438.87c-13.25 0.12753-25.831 6.9489-37.463 13.295-9.8318 5.3639-18.119 13.213-26.588 20.543-13.14 11.373-24.076 25.175-37.463 36.256-16.703 13.825-35.241 25.276-53.174 37.463-23.102 15.7-47.695 29.232-70.092 45.922-13.524 10.078-27.295 20.178-38.672 32.629-6.6334 7.2601-10.654 16.589-16.918 24.17-24.435 29.57-47.671 62.169-80.15 82.578-18.304 11.502-42.339 30.468-61.525 20.508-3.2299-1.6766-3.1367-10.457-3.1367-10.457s-113.55 22.918-171.19 25.84c-56.074 2.843-168.24-8.166-168.24-8.166s0.59044 4.9274-0.95703 6.457c-8.9957 8.8918-25.115 7.1717-37.598 5.127-35.672-5.8437-63.958-33.873-97.158-48.17-7.4914-3.226-15.691-4.7615-22.961-8.459-16.83-8.5592-31.176-21.323-47.131-31.42-17.864-11.304-37.28-20.203-54.383-32.629-23.331-16.95-42.153-39.542-65.258-56.799-8.4162-6.2858-17.692-11.33-26.586-16.92-11.641-7.3166-23.658-14.048-35.047-21.752-14.081-9.5252-27.164-20.46-41.088-30.213-9.517-6.6661-18.164-15.151-29.004-19.336-15.2-5.8682-32.315-10.195-48.34-7.25-14.546 2.6733-26.443 13.433-38.672 21.752-13.733 9.342-30.321 17.064-38.672 31.422-7.3914 12.708-8.4754 28.854-7.25 43.504 1.03 12.314 5.0295 24.901 12.084 35.047 8.333 11.984 23.544 17.446 33.838 27.795 5.8566 5.8879 10.655 12.748 15.711 19.336 8.781 11.443 17.431 23.01 25.379 35.047 12.943 19.601 21.411 42.219 36.254 60.424 12.791 15.688 27.799 29.969 44.713 41.088 20.644 13.57 44.759 20.987 67.676 30.213 29.787 11.991 60.867 20.594 90.637 32.629 16.381 6.6227 32.101 14.787 48.34 21.752 19.593 8.4038 47.325 6.4743 59.215 24.17 1.7331 2.5793-1.2225 6.4654 0 9.3223 5.5366 12.939 22.151 17.853 30.541 29.152 27.785 37.421 29.52 92.489 63.162 124.75 5.5776 5.348 13.919 6.7477 21.104 9.5938 19.778 7.8354 39.624 16.08 60.424 20.543 16.617 3.565 33.78 5.6511 50.756 4.834 12.705-0.6116 25.073-4.3802 37.465-7.25 15.041-3.4833 29.971-7.4995 44.713-12.086 6.9344-2.1573 13.31-6.6186 20.545-7.25 9.7642-0.8521 19.357 3.1028 29.004 4.834 20.995 3.7676 41.51 12.234 62.84 12.084 23.859-0.1675 47.443-7.0037 70.094-14.502 18.136-6.0037 35.391-14.67 51.965-24.17 5.5254-3.1669 10.272-7.5584 15.709-10.875 5.8461-3.5662 12.643-13.77 18.127-9.668 0.3764 0.2815-0.2851 1.3809-0.2851 1.3809l92.726-87.578s0.1335-3.0248 0.6133-4.4395c6.5475-19.306 18.827-36.263 30.211-53.174 10.891-16.179 23.134-31.493 36.256-45.922 8.6257-9.4853 18.232-18.046 27.795-26.586 25.813-23.052 55.658-41.631 79.76-66.467 13.189-13.59 23.041-30.07 35.047-44.715 14.127-17.232 28.962-33.872 43.504-50.756 18.078-20.99 37.732-40.703 54.383-62.842 11.552-15.359 22.572-31.28 31.42-48.34 4.9937-9.6283 11.061-19.413 12.086-30.211 1.2023-12.662-1.6311-26.053-7.2519-37.463-6.1794-12.544-16.442-23.258-27.795-31.422-9.2329-6.639-20.781-9.2762-31.42-13.293-10.726-4.0495-21.165-10.987-32.629-10.877z" fill="#080700" stroke="#000" stroke-linejoin="bevel" stroke-miterlimit="0" stroke-width="2.5"/><path d="m690.07 282.97-9.6679 49.548 48.339 58.007 50.756 2.417 36.255-29.004 13.293-39.88-7.2509-56.799-3.6255-20.544-31.421 29.004-35.046 22.961z" fill="#fefefe" stroke="#000" stroke-linejoin="bevel" stroke-miterlimit="0" stroke-width="2.5"/><g transform="translate(-216.29 -198.01)"><path d="m1034.5 447.14c2.1175 9.6458 7.689 19.266 6.0425 29.004-1.9581 11.58-11.735 20.36-18.127 30.212-5.353 8.2498-13.729 14.867-16.919 24.17-5.2331 15.261-2.7799 32.21-2.417 48.339 0.1912 8.4955 2.417 25.378 2.417 25.378l42.297-71.301s-9.6177 37.073-14.502 55.59c-3.1899 12.094-1.5093 26.775-9.6679 36.255-6.5903 7.6575-27.795 12.085-27.795 12.085s8.5639 9.7573 14.502 10.876c14.79 2.7875 30.88-3.8914 43.506-12.085 10.081-6.5421 16.405-17.724 22.961-27.795 2.9484-4.5294 7.2509-14.502 7.2509-14.502s1.8365 8.8153 2.7548 13.223c1.0959 5.2602 3.2877 15.781 3.2877 15.781s-0.3732-7.8374-0.5598-11.756c-0.2162-4.5407-1.7976-9.2238-0.6487-13.622 0.9605-3.6769 6.0424-9.6679 6.0424-9.6679v14.804 12.991s2.4881-11.196 3.7321-16.794c1.1729-5.2782 2.0755-10.624 3.5188-15.835 1.7002-6.1382 5.4148-11.789 6.0424-18.127 0.64-6.4638 0.2271-13.403-2.4169-19.336-3.2547-7.3035-8.7355-14.217-15.71-18.127-4.2748-2.3964-10.981 0.99199-14.502-2.417-10.33-10.002-6.1563-28.104-8.4594-42.297-1.5607-9.6173 1.3626-20.634-3.6254-29.004-3.5481-5.9534-11.144-8.2523-16.919-12.085-5.1232-3.4003-15.71-9.6679-15.71-9.6679s2.473 10.461 3.6254 15.71z" fill="#fdba16" stroke="#000" stroke-linejoin="bevel" stroke-miterlimit="0" stroke-width="2.5"/><path d="m901.53 474.93s-12.034 21.817-14.502 33.838c-2.1059 10.26-0.76952 20.975 0 31.421 0.80784 10.965 1.2539 22.233 4.8339 32.629 5.5803 16.204 25.378 44.714 25.378 44.714l2.417-14.502 26.587 18.127-19.336-22.961 32.629 9.6679s-16.248-11.347-21.753-19.336c-7.0892-10.288-9.203-23.24-13.293-35.046-4.8383-13.964-9.1728-28.104-13.293-42.297-3.4871-12.011-9.6679-36.255-9.6679-36.255z" fill="#fdba16" stroke="#000" stroke-linejoin="bevel" stroke-miterlimit="0" stroke-width="2.5"/><path d="m1047.7 445.75s2.6872 22.09 0 32.629c-1.247 4.8907-7.25 13.293-7.25 13.293s8.8593-7.0553 10.875-12.086c2.548-6.3592 0.6055-20.543 0.6055-20.543s5.2615 12.706 4.834 19.336c-0.71 11.011-8.1118 20.523-12.086 30.816-3.8801 10.05-11.48 30.211-11.48 30.211s8.9895-20.101 14.502-29.607c3.7828-6.524 10.696-11.457 12.69-18.73 1.7599-6.4226 0.3969-13.479-1.209-19.941-1.1737-4.7234-6.041-13.293-6.041-13.293s10.728 11.45 12.688 18.732c2.2558 8.3837-0.8276 17.357-1.8125 25.982-1.018 8.9154-1.9051 17.919-4.2285 26.586-3.351 12.501-9.5774 24.054-13.898 36.254-3.041 8.5856-6.0786 17.191-8.4589 25.982-1.239 4.5763-3.0215 13.898-3.0215 13.898s7.719-14.695 10.877-22.357c3.3249-8.0677 8.459-24.773 8.459-24.773s-4.4223 21.185-7.8555 31.42c-3.2718 9.754-6.6927 19.638-12.084 28.4-4.4191 7.1824-16.314 19.336-16.314 19.336s15.655-9.3077 21.148-16.314c5.8419-7.4516 6.5454-17.902 11.48-25.982 2.8364-4.6442 10.272-12.689 10.272-12.689l-3.0215 15.709s10.299-28.181 12.69-42.9c0.937-5.769 0.6035-17.523 0.6035-17.523s8.7704 21.888 7.8554 33.234c-0.7186 8.9105-6.0126 16.914-10.271 24.773-4.4181 8.1538-9.2776 16.281-15.711 22.961-4.695 4.8745-16.314 12.086-16.314 12.086s14.928-5.9629 21.148-10.877c5.8287-4.6047 11.004-10.367 14.502-16.92 4.2349-7.9321 7.2519-25.982 7.2519-25.982s2.1657 14.048 0 20.545c-3.5733 10.72-27.727 18.569-20.34 27.119 1.8976 2.1962 5.5125-2.1951 7.6504-4.1582 7.5651-6.9464 16.965-25.721 16.965-25.721 0.1458-0.22108 0.1153-1.3356 0.582-1.2832 0.103 0.0116 0.057 0.31252 0.062 0.30469 0 0 0.926-1.0493 1.1211-1.6992 3.9955-13.311 0.4245-27.802 0-41.693-0.2475-8.0986-1.4843-24.262-1.4843-24.262-0.1871-3.0584-6.1354 0.42348-8.1582-1.5352-10.33-10.002-6.1559-28.104-8.459-42.297-1.5607-9.6173 1.361-20.634-3.627-29.004-0.412-0.6914-0.6635-1.6405-1.4004-1.9238zm11.082 178.78c-4.9961-5.7835-20.145 10.949-20.145 10.949s13.376-4.6551 18.73-9.0645c0.6063-0.49929 1.9275-1.2904 1.4141-1.8848z" fill="#fee4a5"/></g><path d="m653.62 207.04c6.4717 9.8004 9.115 21.648 13.672 32.472s7.8814 22.255 13.672 32.472c5.2251 9.219 11.034 18.426 18.8 25.636 11.816 10.97 24.995 23.835 41.017 25.636 13.786 1.5496 28.782-4.6369 39.308-13.672 8.3152-7.1372 9.133-20.052 15.382-29.054 7.8233-11.271 20.939-18.631 27.345-30.763 5.4837-10.386 7.6927-22.468 8.5452-34.181 0.4156-5.7102-3.7913-11.757-1.709-17.091 2.495-6.3901 11.828-7.8048 15.382-13.672 3.6505-6.0273 4.4504-13.495 5.1272-20.509 1.0411-10.789-0.3579-21.718-1.7091-32.472-0.7243-5.7644-1.8142-11.507-3.4181-17.091-1.6412-5.7138-4.0166-11.196-6.3163-16.678-4.4624-10.637-9.1095-21.223-14.502-31.421-6.588-12.459-12.27-25.829-21.753-36.255-6.3971-7.0329-14.476-12.63-22.961-16.919-10.917-5.5174-22.953-9.0429-35.046-10.876-10.355-1.5699-21.144-2.0208-31.421 0-9.3952 1.8474-18.28 6.1138-26.587 10.876-7.4789 4.2879-14.058 10.032-20.544 15.71-11.573 10.132-25.126 19.202-32.629 32.629-4.2419 7.5911-5.7644 16.687-6.0424 25.378-0.45742 14.297 5.0307 28.166 7.2509 42.297 0.8842 5.6278 5.7073 12.268 2.417 16.919-1.1864 1.6768-4.8684-0.47698-6.0424 1.2085-4.4287 6.3582 1.904 15.406 3.6255 22.961 1.8687 8.2011 2.9981 16.913 7.2509 24.17 2.8812 4.9166 8.7449 7.5333 11.885 12.289z" fill="#fefefe" stroke="#000" stroke-linejoin="bevel" stroke-miterlimit="0" stroke-width="2.5"/><g transform="translate(-216.29 -198.01)"><path d="m866.48 372.21-3.6255-35.046-3.6254-42.297 16.919-25.378h38.672l18.127-4.8339 55.59-1.2085 29.004 16.919 3.6255 39.88 12.085 26.587 9.6678-9.6679 1.2085-12.085 18.127-14.502-15.71-39.88-22.961-37.463-26.587-20.544-31.421-12.085h-32.629l-27.795 6.0424-36.255 29.004-13.293 18.127-12.085 14.502 3.6254 55.59 7.2509 27.795z" fill="#fdba16" stroke="#000" stroke-linejoin="bevel" stroke-miterlimit="0" stroke-width="2.5"/><path d="m946.99 200.61c-7.0411 0-9.4766 8.5059-9.4766 8.5059s9.5576-3.1686 14.525-3.418c10.904-0.54737 22.078 0.93217 32.473 4.2715 4.0857 1.3126 7.6764 3.8573 11.354 6.0692 4.3286 2.6037 12.574 8.4581 12.574 8.4581s-29.282-9.2438-44.436-11.109c-6.22-0.76575-18.801 0-18.801 0s15.23 2.0741 22.691 3.8627c5.5694 1.3351 16.404 5.1096 16.404 5.1096l-14.314-0.42539s8.2304 2.6433 12.31 4.0705c5.616 1.9648 11.199 4.0262 16.744 6.1833 6.3099 2.4547 18.8 7.6895 18.8 7.6895s-21.764-7.8206-33.071-10.018c-7.1026-1.3802-21.619-1.9451-21.619-1.9451s15.724 4.5025 23.261 7.6301c7.0163 2.9115 20.321 10.315 20.321 10.315s-12.256-4.2537-18.611-5.4268c-5.6829-1.0491-17.279-1.4091-17.279-1.4091s11.088 2.7374 16.236 5.127c5.8057 2.695 16.235 10.254 16.235 10.254s-23.559-10.35-35.889-9.3984c-7.1226 0.54947-19.654 8.5449-19.654 8.5449s13.126-2.502 19.654-1.709c13.145 1.5968 25.62 7.175 37.6 12.816 7.8672 3.7048 15.028 8.7812 22.217 13.674 3.5319 2.4038 10.254 7.6895 10.254 7.6895l-3.418-22.217s8.0512 11.342 11.964 17.091c2.7689 4.0686 8.1453 12.314 8.1453 12.314s-4.2743-15.335-7.6384-22.509c-6.2186-13.261-13.178-26.562-22.961-37.463-7.4806-8.3358-16.827-15.053-26.588-20.545-9.7794-5.5026-20.387-10.036-31.42-12.084-6.0912-1.131-18.586 0-18.586 0z" fill="#fff4da"/></g><g fill="#3e9e9e"><path d="m780.68 174.02 14.502 12.085-2.417 24.17 12.085-26.587-16.919-14.502z"/><path d="m780.08 138.98 14.502-18.732-10.876-33.838 5.4382 31.421-15.106 16.919z"/><path d="m681.59 189.13-6.6467 20.544 9.0636 20.544-18.127-21.148 6.0424-19.336z"/><path d="m667.69 148.64-13.293-32.025 15.71-32.629-7.8552 31.421 11.481 29.004z"/></g><g fill="#fd2016" stroke="#000" stroke-width="3"><path transform="translate(-209.04 -188.34)" d="m887.03 357.71c1.0906 0.78769-0.5237 1.8588-1.3092 1.8127-2.1286-0.12482-2.8836-2.7038-2.3163-4.4311 1.0147-3.0898 4.7904-4.0416 7.553-2.8198 4.0543 1.793 5.2282 6.9032 3.3233 10.675-2.5388 5.0272-9.025 6.4266-13.797 3.8269-6.0049-3.2715-7.6311-11.151-4.3304-16.919 3.9975-6.9854 13.28-8.839 20.041-4.834 7.9678 4.7198 10.049 15.41 5.3375 23.163-5.4398 8.9513-17.54 11.261-26.285 5.841-9.9356-6.1583-12.473-19.672-6.3446-29.406 6.8757-10.921 21.804-13.687 32.528-6.8481 11.906 7.5923 14.901 23.937 7.3516 35.65" fill-rule="evenodd"/><path transform="matrix(-1 0 0 1 1655.3 -199.21)" d="m887.03 357.71c1.0906 0.78769-0.5237 1.8588-1.3092 1.8127-2.1286-0.12482-2.8836-2.7038-2.3163-4.4311 1.0147-3.0898 4.7904-4.0416 7.553-2.8198 4.0543 1.793 5.2282 6.9032 3.3233 10.675-2.5388 5.0272-9.025 6.4266-13.797 3.8269-6.0049-3.2715-7.6311-11.151-4.3304-16.919 3.9975-6.9854 13.28-8.839 20.041-4.834 7.9678 4.7198 10.049 15.41 5.3375 23.163-5.4398 8.9513-17.54 11.261-26.285 5.841-9.9356-6.1583-12.473-19.672-6.3446-29.406 6.8757-10.921 21.804-13.687 32.528-6.8481 11.906 7.5923 14.901 23.937 7.3516 35.65" fill-rule="evenodd"/><g stroke-linejoin="bevel" stroke-miterlimit="0"><path d="m714.84 206.84s-11.49 8.7046-10.272 14.502c0.96569 4.5974 12.085 7.2509 12.085 7.2509l4.8339-1.2085"/><path d="m714.24 163.33s-1.7645 26.704 0 39.88c1.2193 9.1046 0.31138 20.568 7.2509 26.587 2.4535 2.1279 6.7718 2.6784 9.6679 1.2085 3.6983-1.8771 2.2529-9.1911 6.0424-10.876 4.9107-2.1839 11.72 7.2262 15.71 3.6255 2.411-2.1759 0.49894-6.9052-1.2085-9.6679-1.5272-2.471-7.2509-4.8339-7.2509-4.8339"/><path d="m683.15 228.12s8.5726 15.587 15.218 21.201c6.2067 5.2428 13.894 9.3124 21.898 10.703 10.165 1.7656 21.299 0.69113 30.763-3.4181 9.6354-4.1837 16.745-12.843 23.927-20.509 7.79-8.3146 20.509-27.345 20.509-27.345s-3.2455 34.217-10.254 49.563c-5.065 11.09-11.173 23.891-22.218 29.054-11.881 5.5536-27.03 2.9-39.308-1.7091-10.245-3.8458-19.107-11.726-25.636-20.509-7.9381-10.678-14.899-37.031-14.899-37.031z"/></g></g><path d="m696.51 250.85s7.1422 7.5761 11.63 10.048c5.1056 2.812 10.943 4.4165 16.734 5.0723 7.805 0.88378 15.957 0.54094 23.509-1.6199 6.6362-1.8989 12.548-5.8808 18.285-9.7196 5.6338-3.7701 15.673-12.959 15.673-12.959s-3.1371 16.703-7.8363 23.489c-4.1486 5.9905-10.078 11.427-16.979 13.769-9.4852 3.2195-20.318 1.6075-30.039-0.80996-7.0743-1.7594-14.148-4.8696-19.591-9.7196-5.2059-4.6394-11.385-17.55-11.385-17.55z" fill="#fffbfb" stroke="#000" stroke-linejoin="bevel" stroke-miterlimit="0"/></g><path d="m697.32 5.0198-31.421 82.177 4.8339 96.679 24.17 67.675 45.922 70.092-14.576-3.5137-30.763-23.072-20.509-34.181-17.945-51.272-15.382-16.236-8.5453-23.927-5.9817-18.8 5.1272-5.1272 2.5636-3.4181-7.6908-60.671 0.85453-12.818 23.072-31.618 34.181-27.345z" stroke="#000" stroke-linejoin="bevel" stroke-miterlimit="0"/><g stroke="#000" stroke-linejoin="bevel" stroke-miterlimit="0"><path d="m683.52 281.38 15.382 81.18 13.672 37.599 29.908 9.3998-21.363-18.8-5.9817-18.8 16.236 18.8h17.091l-21.363-37.599-4.2726-26.49v-9.3998z"/><path d="m530.56 343.77-15.382 33.327-3.4181 36.745-12.818 31.618-4.2726 71.78-11.963 24.781 3.4181 46.999-4.2726 54.69-5.9817 89.994-20.863-11.463 7.6174-34.095 8.118-96.562-4.2726-52.553 8.9725-17.518 5.9817-11.536 2.1363-68.362 13.245-24.354 6.8362-37.599 7.5949-20.36 9.9229-12.539z"/><path d="m592.09 759.07 25.636 4.6999 10.254-33.754 3.4181-64.09-9.3998-61.526-34.181-58.108-17.091-19.654-8.5453-13.672 8.5453 56.399 14.527 30.763 5.9817 44.435 4.2726 56.399 1.7091 28.199z"/><path d="m951.85 535.18-10.254-25.636-5.9817-19.654 28.199 34.181 15.382 32.472 10.254 34.181 11.109 61.526 15.442 64.272-17.091 15.882-19.715-97.244-12.818-58.962z"/><path d="m691.21 306.17-35.89 35.89-51.272 5.1272-23.072-14.527 37.599-1.709 35.036-7.6908 14.527-9.3998 15.382-34.181z"/></g><g fill="#020200"><path d="m1122 1184.8s15.081 1.1969 22.621 1.7953c1.4321 0.1137 2.9552-0.174 4.2964 0.341 5.026 1.93 8.147 7.1497 12.818 9.8271 3.6024 2.0649 7.3899 4.9221 11.536 4.6999 2.0998-0.1125 3.4569-3.1406 5.5544-2.9908 4.063 0.2901 8.7136 3.3452 9.8271 7.2634 0.4193 1.4755-1.825 2.7431-1.7091 4.2727 0.2122 2.801 17.253 6.3101 15.702 8.6521-3.014 4.5511-19.633-0.822-24.247-3.7385-3.6566-2.3112-7.4972-7.5374-10.468-10.682-1.5748-1.6669-3.6573-2.7708-5.5545-4.059-1.8797-1.2763-3.7045-2.6809-5.768-3.6317-3.048-1.4044-6.4401-1.8989-9.6135-2.9909-3.2391-1.1146-6.5438-2.1113-9.6134-3.6317-1.204-0.5964-2.1643-1.6534-3.4181-2.1363-1.8901-0.728-4.0162-0.5792-5.9817-1.0682-2.0324-0.5057-5.9817-1.9227-5.9817-1.9227z"/><path d="m1102.4 1191.9s6.2133-3.6757 9.6679-4.5319c2.0551-0.5094 4.2324-0.4478 6.3446-0.3021 1.6355 0.1128 3.9812-0.4938 4.8339 0.9064 0.5469 0.898-1.4109 2.0988-0.9064 3.0212 0.7037 1.2865 2.7712 1.057 4.2297 1.2085 1.4059 0.146 2.8273-0.4786 4.2297-0.3021 1.8958 0.2386 3.6643 1.1025 5.4382 1.8127 1.7566 0.7032 3.4188 1.6227 5.1361 2.417 1.1044 0.5108 2.1907 1.0658 3.3233 1.5106 1.1857 0.4656 2.3857 1.5011 3.6255 1.2084 0.6931-0.1636 1.5106-1.5106 1.5106-1.5106s-0.5739 2.0464-0.3021 3.0213c0.2705 0.97 1.188 1.627 1.8127 2.4169 0.9758 1.2339 1.4934 3.2506 3.0212 3.6255 1.2715 0.312 2.3498-1.2163 3.6255-1.5106 1.6711-0.3856 5.136-0.3021 5.136-0.3021s-1.6288 2.0451-2.7191 2.719c-1.0836 0.6697-2.6452 0.395-3.6254 1.2085-0.7979 0.6622-1.2505 1.7154-1.5106 2.7191-0.3537 1.3648-0.2765 2.8472 0 4.2297 0.2568 1.2838 1.5106 3.6255 1.5106 3.6255s-0.4768 1.1103-0.9064 1.5106c-1.8038 1.6806-4.1475 3.0505-6.5949 3.3479-1.7207 0.2091-3.4553-0.5339-5.0658-1.175-1.8871-0.7512-3.4634-2.1283-5.2581-3.0793-1.1699-0.62-2.4571-1.0166-3.5856-1.7091-1.1346-0.6961-2.2338-1.4839-3.1647-2.4352-1.8611-1.9017-2.5992-4.8367-4.7303-6.4299-7.4965-5.6042-3.9995 1.3234-4.7454 0.5006-1.3393-1.4772-1.7421-4.5111-3.3752-5.655-1.3654-0.9564-3.6557-2.3119-5.1727-3.0029-1.8052-0.8223-1.5141-2.51-3.3234-3.3233-1.1099-0.4989-2.2101-1.0191-3.3233-1.5106-0.7016-0.3098-1.4901-0.4614-2.1148-0.9064-1.2194-0.8686-3.0213-3.3233-3.0213-3.3233z"/><path d="m1046.9 1196.1s4.9724 3.5506 7.8552 3.6254c1.0843 0.028 2.0856-0.6597 3.0212-1.2085 2.3469-1.3767 3.7796-4.2279 6.3445-5.136 1.0443-0.3697 3.3234 0 3.3234 0s-2.1631 1.6706-3.0212 2.7191c-1.6298 1.9915-2.582 4.453-3.9276 6.6466-0.6866 1.1193-1.9262 2.0239-2.1149 3.3234-0.2107 1.4511 1.2085 4.2297 1.2085 4.2297s1.9607-5.6136 4.2297-7.251c1.5856-1.1442 3.8301-0.7903 5.7403-1.2084 2.2195-0.4858 4.761-0.2431 6.6467-1.5106 1.0203-0.6858 1.184-2.2183 2.1148-3.0213 1.8755-1.6181 4.409-2.2609 6.6467-3.3233 1.9952-0.9472 3.905-2.1624 6.0424-2.7191 2.2499-0.586 6.9488-0.6042 6.9488-0.6042s-9.6434 0.1837-9.6679 3.6254c-0.018 2.4872 4.551 2.0579 6.9488 2.7191 1.7716 0.4885 3.8041 0.066 5.4382 0.9064 1.2664 0.6517 1.688 2.5203 3.0212 3.0212 1.4172 0.5325 4.5318-0.3021 4.5318-0.3021s-1.0039 2.217-1.5106 3.3233c-0.6005 1.3109-2.7743 2.8532-1.8127 3.9276 1.2743 1.4238 3.637-1.175 5.4382-1.8127 1.6222-0.5743 6.2225 0 6.2225 0s-5.317 0.013-6.8267 1.5075c-2.0255 2.0053-3.5604 4.5714-4.5319 7.2509-1.0049 2.7716-1.2085 8.7615-1.2085 8.7615s-5.0546 0.9749-7.553 0.6043c-2.9968-0.4445-5.6182-2.2716-8.4594-3.3234-2.2999-0.8514-4.524-2.0502-6.9488-2.417-2.8894-0.4371-5.8393 0.2936-8.7615 0.3022-3.5262 0.01-7.429 1.2921-10.574-0.3022-1.0242-0.5192-2.4928 0.2994-3.0762-0.6896-0.3897-0.6606 0.2091-3.393 0.055-4.1443-0.162-0.7892-0.3918-1.8644-0.6409-2.6306-0.4236-1.3026-0.8074-2.1411-1.776-3.1097s-2.6471-1.2258-3.3234-2.417c-0.5491-0.9673 0.208-2.3348-0.3021-3.3233-0.4258-0.8251-1.4583-1.1562-2.1148-1.8127-1.3131-1.3131-3.6255-4.2297-3.6255-4.2297z"/></g><path d="m1036.3 1030.2c-2.3052-1.2538-4.1826 3.1763-6.166 4.8945-6.5389 5.6646-14.653 10.266-18.869 17.82-5.584 10.006-4.5611 22.46-6.9648 33.664-1.5582 7.2629-3.2008 14.508-4.834 21.754-3.18 14.109-5.4097 28.475-9.668 42.297-2.9293 9.5081-10.368 17.859-10.877 27.795-0.37586 7.3384 4.1506 15.686 7.7988 21.453 0 0 0.78623 0.6886 0.71289 1.127-0.0574 0.3431-0.81445 0.6523-0.81445 0.6523-0.57353 0.4593-0.3065 1.4459-0.65234 2.1582-0.51432 1.0593-1.3827 1.7787-2.416 2.3281-0.98749 0.525-0.0457 1.1065-0.39062 1.4844-0.56177 0.6154-1.588 0.5154-2.3496 0.8535-1.2524 0.5559-2.4085 1.3085-3.6328 1.9239-1.48 0.7439-2.8642 1.8018-4.4863 2.1367-1.8841 0.389-3.8896 0.2025-5.7676-0.2149-1.9625-0.4362-5.4388-0.6512-7.3674-0.084-1.8186 0.5351-11.565-2.9066-10.756-1.1922 1.2258 2.5978 6.4756 5.2725 12.718 5.9378 6.7966 0.7243 14.574-0.6814 14.574-0.6814 8.9104 0.8107 17.086-7.9361 25.791-6.4629 6.398 1.0828 9.7082 10.89 16.457 10.404 0 0 12.714 7.6253 19.724 7.2472 1.9919-0.1074 5.9702-0.6836 7.9032-1.1762 1.0803-0.2753 3.5806-4.3497 4.3808-5.1259 0.7546-0.7319-0.5354-6.9431-0.5354-6.9431s-1.7061 0.1773-2.5625 0.2128c-1.2808 0.053-2.5853 0.234-3.8457 0-0.9752-0.1811-1.9575-0.5099-2.7773-1.0683-0.9578-0.6524-1.3963-1.9036-2.3496-2.5625-0.6312-0.4362-1.5412-0.3719-2.1368-0.8555-0.3984-0.3235-0.8829-0.7689-0.8535-1.2812 0.069-1.2107 1.2717-2.2218 2.3496-2.7774 1.5243-0.7857 3.4165-0.5506 5.127-0.4277 1.8953 0.1362 3.657 1.1836 5.5547 1.2812 1.1466 0.059 3.4179-0.4257 3.4179-0.4257s-0.9073-2.0432-1.7089-2.7774c-0.7049-0.6456-1.6814-0.9174-2.5645-1.2832-1.0397-0.4306-2.0853-0.9368-3.2031-1.0664-2.3443-0.2717-4.7015 0.4168-7.0508 0.6406-1.4251 0.1357-3.0308 1.1366-4.2734 0.4258-0.885-0.5062-0.6982-1.941-1.2813-2.7773-0.6334-0.9086-2.6043-1.2717-2.3496-2.3496 0.2072-0.8768 1.7128-0.5598 2.5645-0.8536 2.0011-0.6904 5.9804-2.1367 5.9804-2.1367s-2.9917-0.05-4.4863 0c-1.0701 0.035-2.1685-0.055-3.2051 0.2129-1.295 0.335-2.2953 1.7837-3.6308 1.709-1.0853-0.061-2.8348-0.6235-2.7774-1.709 0.096-1.8131 4.9141-2.3496 4.9141-2.3496s-2.7426-0.5344-4.0586-0.2129c-1.3647 0.3334-2.2338 2.2644-3.6328 2.1367-1.2291-0.1122-3.0534-1.2161-2.7989-2.4238 0.5648-2.6807 5.1301-2.1377 7.8555-2.416 4.2269-0.4317 8.4406 1.1979 12.69 1.207 4.4492 0.01 8.9062-0.4641 13.293-1.207 4.0944-0.6934 7.9932-2.319 12.086-3.0215 4.1871-0.7187 8.4647-0.7439 12.688-1.209 3.2282-0.3556 9.6679-1.209 9.6679-1.209s-5.4981-2.576-8.4589-3.0214c-8.9718-1.3497-18.28-0.4942-27.192 1.2089-5.4426 1.0401-10.169 5.568-15.709 5.4375-2.1688-0.051-4.7546-0.6707-6.043-2.416-5.0904-6.8957 14.532-8.1546 17.523-7.8554-5.2659 0.1231-14.237-3.9665-15.107-3.625-4.5967 1.8033 9.664-2.0336 14.502-3.0215 7.0438-1.4383 17.27 1.8226 21.148-4.2305 2.3454-3.6603-2.0662-8.446-3.0195-12.688-2.3476-10.445 0.1916-23.186-6.6485-31.422-7.6764-9.2426 25.988-7.1852 24.17-10.876-1.6622-3.3752-28.279-6.8889-32.024-7.2507-3.5863-0.3465-7.5612-1.9111-9.668-4.834-4.9969-6.9324-2.7101-16.883-3.6269-25.379-0.8883-8.2321-1.9095-16.494-1.8125-24.774 0.073-6.2722 7.3228-15.733 1.8125-18.73z" fill="#060500"/><g fill="#050500"><path d="m433.64 935.72s2.0555 30.304 1.4388 45.814c-0.36741 9.2401 0.36601 18.502 0 27.742-1.0076 25.438-3.6276 50.791-6.041 76.135-0.6916 7.2625 0.34885 15.002-2.418 21.752-2.0915 5.1028-6.6718 9.1303-9.9815 13.544-6.847 9.13-13.861 17.808-21.438 26.337-7.9454 8.9437-15.871 18.116-25.379 25.377-10.324 7.8852-22.449 13.087-33.838 19.336-7.5828 4.1605-15.725 7.3485-22.961 12.086-4.3159 2.8255-11.601 4.5321-12.084 9.668-0.24412 2.5968 2.9084 4.5146 5.0918 5.9414 1.7056 1.1145 3.8126 1.6795 5.8476 1.7793 4.1546 0.2037 8.6058-0.4172 12.236-2.4473 1.4479-0.8096 2.0678-2.6404 3.3867-3.6465 4.1543-3.1689 8.7609-6.2896 13.896-7.2519 1.7931-0.336 3.6899 0.087 5.4395 0.6035 2.1593 0.6376 3.7938 3.1609 6.041 3.0215 1.4499-0.09 3.4547-0.9737 3.627-2.4161 0.4225-3.5385-7.7581-4.3278-7.252-7.8554 0.66718-4.6503 7.8424-5.2344 12.086-7.25 6.9634-3.3076 14.22-6.2118 21.752-7.8555 4.7392-1.0343 9.7837-2.3348 14.502-1.209 2.9906 0.7136 7.991 1.7624 7.8555 4.834-0.0794 1.7996-3.1807 1.7008-4.834 2.416-3.7432 1.6192-7.6321 2.8803-11.48 4.2305-6.0101 2.1086-12.117 3.9351-18.127 6.043-3.8489 1.3499-7.9546 2.1815-11.482 4.2285-5.6878 3.3004-15.287 6.1159-15.105 12.689 3e-3 0.098 0.13838 0.1578 0.23437 0.1758 7.3294 1.3739 14.896-9.4123 21.543-6.0312 0.0632 0.032 1.2139 2.9356 1.2827 2.9183 7.3991-1.8585 11.803-11.399 18.633-15.19 6.8525-3.8027 13.738-7.7201 21.148-10.272 2.7266-0.9388 5.7118-2.6891 8.459-1.8125 3.1234 0.9966 3.8512 5.5367 6.6465 7.25 3.2082 1.9665 7.5827 1.2029 10.877 3.0215 2.6214 1.4471 7.9219 3.3338 6.6465 6.0429-0.60677 1.2888-6.4392-3.7804-7.8559-3.9287-3.0111-0.3153-10.018-3.8028-8.4582-1.2078 2.7879 4.6394-18.412 18.919-19.515 18.092 0 0 28.489-3.1635 30.718-3.4044 4.8119-0.5201 6.088-3.0843 10.697-4.5621 1.426-0.4572-0.18028-2.944 1.0609-3.7819 7.2556-4.8978 15.697-12.471 24.17-10.272 4.4457 1.154 6.9685 6.5325 8.459 10.877 0.61291 1.7865-1.8613 5.987 0 5.6661 3.24-0.5586 11.071-1.3638 16.34-3.0645 4.2856-1.3833 12.084-6.041 12.084-6.041s3.255 6.401 6.043 8.459c0.37318 0.2755 0.86758 0.5403 1.3203 0.4394 4.0063-0.8926 5.1821-6.802 8.9277-8.4804 1.364-0.6112 4.3701 1.1204 4.4688-0.3711 5e-3 -0.073-0.15053-0.012-0.21485-0.047-1.5003-0.82-3.2342-1.963-3.627-3.627-1.4632-6.1989 5.0226-11.84 6.043-18.127 0.19357-1.1927 0.27762-2.449 0-3.625-0.82781-3.5067-4.1234-6.1357-4.834-9.668-1.1943-5.9368 1.1754-12.071 1.209-18.127 0.0402-7.2624-0.71798-14.508-1.209-21.754-0.68301-10.079-2.013-20.117-2.416-30.211-0.2089-5.2328 0-15.711 0-15.711l5.4824 2.4922s-35.377-87.325-63.162-124.75c-7.3741-9.9316-27.698-30.75-27.698-30.75z"/><path d="m444.12 1212.3c1.084 0.7533 3.3895-2.6651 6.1676-2.8841 1.7881-0.141 4.5234 0.058 5.0141 1.5106 0.93861 2.7784 2.417 8.4594 2.417 8.4594s1.6311-2.4972 1.8127-3.9276c0.1418-1.117-0.0817-2.326-0.60425-3.3233-0.92539-1.7662-2.4463-3.338-4.2297-4.2297-2.5477-1.2739-6.2076-2.9529-8.4594-1.2085-0.72092 0.5585-2.8668 5.0827-2.118 5.6032z"/><path d="m379.41 1206.2c-1e-5 1.0071 2.0484 1.655 2.7772 2.35 0.76615 0.7305 1.7358 1.2741 2.35 2.1363 0.62928 0.8834 1.381 1.9107 1.2818 2.9908-0.0704 0.767-0.74193 1.3733-1.2818 1.9227-0.78915 0.8031-2.7772 1.9227-2.7772 1.9227s2.7991 0.3268 3.8454-0.4273c0.82712-0.5962 1.8063-1.2784 2.1363-2.2431 0.30751-0.8989-0.1775-2.3619-0.21363-3.3113-0.0454-1.1928-0.37413-2.4469-1.0682-3.4181-0.77014-1.0777-2.074-1.6597-3.2045-2.35-0.54359-0.3319-1.0804-0.9565-1.709-0.8545-0.69584 0.1129-2.1363 0.5769-2.1363 1.2818z"/></g><g fill="#050500"><circle cx="766.94" cy="159.37" r="7.2635"/><circle cx="679.78" cy="169.62" r="7.2635"/></g><g><path d="m487.08 951.09c26.039 18.078 41.871 51.878 71.779 62.381 6.7242 2.3614 14.24-1.068 21.363-0.8555 5.7225 0.1707 11.482 0.5561 17.09 1.709 5.5592 1.1429 10.748 3.6802 16.236 5.127 13.236 3.4893 27.068 4.5661 40.164 8.5468 11.74 3.5687 22.13 11.351 34.18 13.672 6.1538 1.1851 23.333-0.3021 23.333-0.3021s18.085-45.73 22.812-70.624c7.2275-38.06 2.7321-77.522 0.85547-116.22-1.1931-24.601 7.1929-51.747-6.196-72.42-5.7717-8.9118-2.9347-2.0289-6.3548-17.683-2.8014-12.823-10.007-24.25-16.588-35.707-6.2971-10.963-12.893-21.751-19.336-32.629-2.1328-3.6005-6.3965-10.803-6.3965-10.803s-7.0446 12.501-9.3145 19.262c-4.5761 13.63-5.1229 28.311-8.459 42.297-3.4922 14.64-6.3562 29.587-12.084 43.506-6.5924 16.02-19.441 32.549-26.818 44.857-5.7075 9.5221-21.142 19.239-31.161 24.022" fill="#030303" stroke="#7d7d7d" stroke-linejoin="bevel" stroke-miterlimit="0"/><path d="m693.67 673.13c-5.7181 0.27949-12.232 5.2492-13.293 10.875-4.1106 21.801 23.369 37.848 32.629 58.008 3.936 8.569 7.3997 17.433 9.668 26.586 2.8367 11.447 3.5382 23.325 4.834 35.047 1.5989 14.464 4.645 28.989 3.625 43.506-0.637 9.0655-3.2602 17.934-6.041 26.586-2.5411 7.9061-9.1057 14.676-9.668 22.961-0.61329 9.0368 10.773 17.975 7.0644 26.238-2e-3 5e-3 -0.013 3e-3 -0.0156 8e-3 -5.1974 10.062 5.683 22.264 5.1797 33.578-0.55611 12.499-5.2292 24.51-8.9941 36.441-2.8492 9.0297-8.7015 17.15-10.254 26.49-1.1684 7.0303-5.2434 17.673 0.85351 21.363 5.1231 3.1008 12.2-3.2657 16.236-7.6895 8.3816-9.1864 9.515-23.046 12.818-35.035 2.8494-10.341 0.11914-18.611 2.5643-29.056 1.6857-7.2002 2.4352-16.533 2.5624-23.927 0.16582-9.6415 1.007-18.519 2.9e-4 -28.109-2.6-24.769 3.2071-49.799 2.1953-74.684-0.59276-14.579-2.3043-29.136-4.834-43.506-2.3714-13.471-6.2259-26.641-9.668-39.879-3.7876-14.567-9.0181-28.77-12.084-43.506-2.7802-13.362-5.313-20.22-10.877-32.629-2.377-5.3012-8.6992-9.9516-14.502-9.668z" fill="#aeaeae"/><g stroke="#000" stroke-linejoin="bevel" stroke-miterlimit="0" stroke-width="2.5"><path d="m316.18 640.9s17.435 16.758 25.635 25.635c8.6374 9.3502 17.444 18.653 24.781 29.055 6.2518 8.8635 10.669 18.89 16.236 28.199 4.9901 8.3442 9.2165 17.264 15.383 24.781 19.3 23.527 43.47 42.668 66.652 62.381 19.184 16.313 35.981 38.019 59.816 46.145 8.3578 2.8491 17.66 0 26.49 0h19.654c1.9941 0 3.9886 0.0384 5.9824 0 7.4097-0.1426 15.426 2.1115 22.217-0.85547 4.4299-1.9354 7.2806-6.4437 10.256-10.254 2.0443-2.6181 4.8091-5.2385 5.127-8.5449 0.63795-6.6371-3.4661-13.045-6.8359-18.799-6.8391-11.677-17.284-20.845-26.49-30.764-3.8368-4.1336-7.8147-8.144-11.965-11.963-1.3362-1.2296-0.0827-3.2573-4.1582-3.5195-4.1949-0.26992-8.354-0.73723-12.176-1.3633-35.672-5.8437-63.958-33.873-97.158-48.17-7.4914-3.226-15.691-4.7615-22.961-8.459-16.83-8.5592-31.176-21.323-47.131-31.42-17.864-11.304-37.28-20.203-54.383-32.629-3.4305-2.4923-5.8016-6.8338-9.875-7.998z" fill="#ddd"/><path d="m98.004 497.15c-3.4557-0.0702-6.878 0.28579-10.275 0.78907-3.3981 0.50339-0.76209 4.1582-0.56641 6.2363 0.19436 2.0642 0.61097 4.2218 1.709 5.9805 2.0296 3.2507 5.0792 6.056 8.5449 7.6914 5.2095 2.4583 11.444 1.4202 17.09 2.5644 11.24 2.2781 23.934 1.9664 33.328 8.5449 5.3714 3.7613 11.107 16.236 11.107 16.236s-12.736-7.6552-19.652-10.254c-9.0548-3.402-18.529-6.9092-28.201-6.8379-9.1193 0.0672-18.868 1.8312-26.49 6.8379-5.4287 3.5659-10.112 9.155-11.963 15.381-1.9546 6.5752-0.43175 13.991 1.709 20.508 2.7138 8.2618 8.1304 15.517 13.672 22.219 8.608 10.411 18.855 19.581 29.91 27.344 15.536 10.909 33.92 17.095 50.416 26.49 11.334 6.4556 22.767 12.852 33.326 20.51 13.906 10.085 26.222 22.198 39.309 33.326 9.6971 8.246 19.359 16.533 29.055 24.781 9.3896 7.9879 18.224 16.685 28.199 23.928 19.766 14.352 40.807 26.997 62.381 38.453 22.632 12.017 52.255 13.199 70.07 31.617 3.6411 3.7641 2.2331 10.871 5.9824 14.527 17.687 17.248 45.198 20.71 69.217 26.49 7.7983 1.8766 15.905 2.6349 23.926 2.5644 4.5932-0.0403 9.0943-1.352 13.674-1.709 9.0914-0.70881 18.243-0.27323 27.344-0.85546 8.8533-0.56642 26.49-2.5645 26.49-2.5645s-65.338-27.389-93.143-48.707c-43.753-33.545-112.06-121.65-112.06-121.65-1.8132-1.9683-4.3201-3.1804-6.5781-4.6094-14.618-9.2503-30.209-16.99-44.787-26.27-14.601-9.2934-14.746-11.085-21.15-7.2695-4.4654 2.6601-3.2053 10.223-2.5644 15.381 0.61337 4.9371 3.6562 9.2761 5.9824 13.674 6.7624 12.784 15.238 24.588 23.072 36.744 11.469 17.797 35.035 52.98 35.035 52.98s-7.1104-7.7279-11.109-11.109c-13.881-11.737-30.048-20.505-44.434-31.617-12.642-9.7656-24.651-20.329-36.746-30.764-12.985-11.202-24.128-24.752-38.453-34.18-16.286-10.718-36.695-14.063-52.98-24.781-5.7308-3.7717-12.572-7.4154-15.383-13.674-2.8004-6.236-4.0492-15 0-20.508 5.6568-7.6942 17.812-7.9978 27.346-8.5449 6.0793-0.34889 12.024 1.9978 17.945 3.418 8.9412 2.1445 18.057 4.0286 26.49 7.6914 12.77 5.546 24.482 13.382 35.891 21.361 8.1298 5.6858 23.072 18.801 23.072 18.801l-8.0273-16.441c-7.5916-15.549-25.004-23.987-38.84-34.32-8.4162-6.2858-17.692-11.33-26.586-16.92-11.641-7.3166-23.658-14.048-35.047-21.752-14.081-9.5252-27.164-20.46-41.088-30.213-9.517-6.6661-18.164-15.151-29.004-19.336-11.4-4.4012-23.876-7.936-36.162-8.1856z" fill="#fcfcfc"/></g><g><path d="m916.38 942.54c-5.7225 0.1707-15.755 19.356-21.362 20.509-5.5592 1.1429-23.566 7.9528-29.054 9.3996-13.236 3.4893-13.395 12.257-26.492 16.238-11.74 3.5687-27.257 38.696-39.307 41.017-6.1538 1.1851-24.187 13.37-24.187 13.37s-18.085-45.73-22.812-70.624c-7.2275-38.06-2.7321-77.522-0.85547-116.22 1.1931-24.601-7.1929-51.747 6.196-72.42 5.7717-8.9118 2.9347-2.0289 6.3548-17.683 2.8014-12.823 10.007-24.25 16.588-35.707 6.2971-10.963 12.893-21.751 19.336-32.629 2.1328-3.6005 6.3965-10.803 6.3965-10.803s7.0446 12.501 9.3145 19.262c4.5761 13.63 5.1229 28.311 8.459 42.297 3.4922 14.64 10.629 32.151 16.357 46.069 12.412 21.294 40.37 11.053 59.688 16.753" fill="#030303" stroke="#7d7d7d" stroke-linejoin="bevel" stroke-miterlimit="0"/><path d="m793.53 674.84c5.7181 0.27949 12.232 5.2492 13.293 10.875 4.1106 21.801-23.369 37.848-32.629 58.008-3.936 8.569-7.3997 17.433-9.668 26.586-2.8367 11.447-3.5382 23.325-4.834 35.047-1.5989 14.464-4.645 28.989-3.625 43.506 0.637 9.0655 3.2602 17.934 6.041 26.586 2.5411 7.9061 9.1057 14.676 9.668 22.961 0.61329 9.0368-10.773 17.975-7.0644 26.238 2e-3 5e-3 0.013 3e-3 0.0156 8e-3 5.1974 10.062-5.683 22.264-5.1797 33.578 0.55611 12.499 5.2292 24.51 8.9941 36.441 2.8492 9.0296 8.7015 17.15 10.254 26.49 1.1684 7.0303 5.2434 17.673-0.85351 21.363-5.1231 3.1008-12.2-3.2657-16.236-7.6895-8.3816-9.1864-9.515-23.046-12.818-35.035-2.8494-10.341-0.11914-18.611-2.5643-29.056-1.6857-7.2002-2.4352-16.533-2.5624-23.927-0.16582-9.6415-1.007-18.519-2.9e-4 -28.109 2.6-24.769-3.2071-49.799-2.1953-74.684 0.59276-14.579 2.3043-29.136 4.834-43.506 2.3714-13.471 6.2259-26.641 9.668-39.879 3.7876-14.567 9.0181-28.77 12.084-43.506 2.7802-13.362 5.313-20.22 10.877-32.629 2.377-5.3012 8.6992-9.9516 14.502-9.668z" fill="#aeaeae"/></g><g fill="#fcfcfc"><path d="m1355.9 438.87c-11.004 0.10592-25.871 0.44696-31.318 10.252 0 0-5.0707 4.4837-3.5254 6.3457 5.7523 6.9311 16.797-6.8074 25.635-8.5449 4.2018-0.82606 9.0061-2.804 12.818-0.85352 2.392 1.2238 3.852 4.182 4.2715 6.8359 0.3667 2.32 0.35 5.7058-1.709 6.8359-2.3686 1.3-4.988-2.6143-7.6895-2.5644-12.167 0.22435-34.182 12.818-34.182 12.818s21.232-7.367 30.764-3.418c1.6852 0.69814 2.4485 2.7283 3.4179 4.2734 3.8595 6.1514 7.4415 12.661 9.3985 19.654 1.5428 5.5132 4.1318 11.903 1.709 17.09-7.2884 15.604-42.725 29.055-42.725 29.055s0.7932 5.2286 1.709 7.6894c1.4668 3.9415 5.9805 11.109 5.9805 11.109s13.26-10.059 19.654-15.381c7.6001-6.3255 12.386-18.609 22.219-19.654 5.1993-0.55293 11.436 2.963 13.672 7.6895 1.0402 2.1988 0.4199 5.7732-0.4687 8.8281-2.5369 2.0968-5.0043 3.9715-7.2227 4.8457-35.678 14.06-65.833 39.36-98.27 59.816-28.2 17.785-64.839 27.228-83.744 54.689-13.718 19.926-13.13 46.839-15.383 70.926-1.9638 20.994-13.952 49.12 1.711 63.236 2.7588 2.4864 7.4644-0.13305 11.107-0.85547 12.635-2.5056 24.937-6.8174 36.746-11.963 21.508-9.3718 44.279-18.277 61.525-34.182 3.0199-2.785 4.4111-6.9378 6.8359-10.254 9.689-13.25 20.279-25.825 30.764-38.455 8.6433-10.412 18.682-19.709 26.49-30.762 3.9751-5.627 6.5065-12.164 10.254-17.945 4.9893-7.6971 10.607-14.977 16.236-22.219 5.2152-6.7091 11.98-12.297 16.236-19.652 2.438-4.2128 4.9802-8.8086 5.1269-13.674 0.1167-3.8725-3.3142-7.2365-3.4179-11.109-0.22-8.2181 5.7127-14 5.9804-22.217 0.2074-6.3659 2.7177-25.493-2.5625-29.055-1.0614-0.71602-2.2186-0.92749-3.4316-0.83399 2.6749-1.403 5.3351-2.1745 7.7031-1.7285 5.9939 1.1288 11.042 8.9622 14.539 16.221 0.3688 3.5577 1.6212 6.9729 3.834 9.4141 0.045 0.0501 0.1025 0.0825 0.1504 0.12891 0.5803 1.6501 1.1308 3.2891 1.1308 3.2891s-0.075-1.2363-0.1289-2.627c3.3677 1.4372 9.5788-1.5736 11.238 1.7734 3.2259 6.5064-5.9619 13.258-9.4004 19.654-2.3591 4.3887-4.8921 8.6952-7.6895 12.818-3.822 5.6334-8.3869 10.729-12.391 16.234-5.2979 7.2854-9.5269 15.374-15.383 22.219-5.3699 6.2768-12.614 10.78-17.945 17.09-4.7676 5.6423-7.8782 12.525-12.391 18.373-3.8221 4.9537-8.396 9.284-12.391 14.1-2.6554 3.2011-8.5439 14.953-8.5439 14.953l5.4619-5.5979c3.1477-3.226 5.8578-6.8508 8.7988-10.266 18.078-20.99 37.732-40.703 54.383-62.842 11.552-15.359 22.572-31.28 31.42-48.34 4.9937-9.6283 11.061-19.413 12.086-30.211 0.2391-2.5184 0.2032-5.0761 0.1328-7.6309-0.01-0.36559-0.2182-0.71798-0.5527-1.0547 0.2378-1.7684 0.2346-3.7939-0.096-6.2227-1.0666-7.8415-3.2982-15.575-6.7363-22.555-6.1794-12.544-16.442-23.258-27.795-31.422-9.2329-6.639-20.781-9.2762-31.42-13.293-10.726-4.0495-21.165-10.987-32.629-10.877z"/><path d="m802.43 896.09c-2.8837-9.2036-9.765-16.664-13.898-25.378-7.8207-16.492-15.676-33.165-20.544-50.756-4.5132-16.308-10.848-33.498-7.8552-50.152 2.6953-15 14.306-26.941 22.357-39.88 8.2645-13.282 26.587-38.672 26.587-38.672s8.0097 12.616 10.272 22.357c1.4244 6.1324 3.2089 19.166 4.2297 25.378 1.3322 8.1074 4.4073 18.077 6.6467 25.982 3.1612 11.159 7.2415 22.131 13.293 32.025 5.2809 8.634 5.5969 17.079 15.106 20.544 16.22 5.9108 34.333-3.8073 51.361-6.6467 8.9225-1.4878 17.621-4.2347 26.587-5.4382 9.2022-1.2353 18.896 0.83504 27.795-1.8127 48.753-14.505 84.967-58.002 132.93-74.926 4.6214-1.6306 14.502-2.417 14.502-2.417s-16.47 20.439-20.544 32.629c-1.5375 4.6006-4.8969 11.351-1.2085 14.502 15.452 13.198 39.31-10.412 59.216-14.502 9.6007-1.9728 23.112-12.667 29.004-4.834 6.1737 8.2074-7.1106 19.595-13.293 27.795-11.338 15.039-26.614 27.035-42.297 37.463-10.052 6.6839-21.813 10.35-32.629 15.71-20.662 10.239-41.237 20.662-61.633 31.421-22.322 11.775-44.432 23.951-66.467 36.255-11.342 6.3333-15.202 17.907-25.378 25.982-12.057 9.5677-35.046 29.004-35.046 29.004s0.0535-26.183 3.6255-38.067c3.3385-11.108 10.583-21.128 12.085-32.629 2.2011-16.852 6.1482-37.786-4.8339-50.756-8.0819-9.5452-36.255-9.6679-36.255-9.6679s20.031 26.537 21.753 42.297c0.85972 7.8675-3.9481 15.329-6.0424 22.961-3.8802 14.14-7.7512 28.289-12.085 42.297-1.8824 6.0848-6.1102 11.758-6.0424 18.127 0.0637 5.9881 8.9929 11.708 6.0424 16.919-4.0481 7.1497-15.086 4.9098-22.961 7.2509-6.2381 1.8544-8.5266 14.066-12.689 9.0636-5.79-6.9586 5.6746-18.405 7.8552-27.191 1.2652-5.0976 2.8366-12.36-1.2085-15.71-5.6188-4.6533-16.286-2.4147-21.753 2.417-6.5154 5.7591-6.5173 16.695-6.0424 25.378 0.32705 5.9795 11.809 13.42 10.876 19.336-1.0287 6.5263-8.2361 10.944-12.085 16.315-3.3844 4.7221-6.6873 10.534-10.272 15.106-4.0463 5.1604-9.1036 8.8401-15.106 11.481-1.8436 0.811-11.431 5.1988-12.689 3.6255-7.9936-9.9998 9.9963-29.177 12.689-41.693 3.8053-17.687 10.013-35.103 10.876-53.173 0.72511-15.174-0.29168-30.821-4.8339-45.318z"/></g></g></g></svg>
